<svg width="22" height="22" viewBox="0 0 22 22" fill="none" xmlns="http://www.w3.org/2000/svg">
<rect width="6.91088" height="1.72772" transform="matrix(-0.711316 0.702872 0.711316 0.702872 4.91581 15.9282)" fill="white"/>
<path fill-rule="evenodd" clip-rule="evenodd" d="M12.0438 18.3159C7.49734 18.3159 3.97936 14.5742 3.97936 10.1755C3.97936 5.77679 7.49734 2.0351 12.0438 2.0351C16.5903 2.0351 20.1083 5.77679 20.1083 10.1755C20.1083 14.5742 16.5903 18.3159 12.0438 18.3159ZM12.0438 20.351C6.54521 20.351 2.08769 15.7953 2.08769 10.1755C2.08769 4.55573 6.54521 0 12.0438 0C17.5425 0 22 4.55573 22 10.1755C22 15.7953 17.5425 20.351 12.0438 20.351Z" fill="white"/>
</svg>
