<svg width="173" height="40" viewBox="0 0 173 40" fill="none" xmlns="http://www.w3.org/2000/svg">
<path d="M2.78965 32.8602L0.289746 29.2059H2.09561L3.79365 31.82L5.50518 29.2059H7.29756L4.79092 32.8602L7.42559 36.6766H5.6332L3.79365 33.8802L1.96084 36.6766H0.168457L2.78965 32.8602Z" fill="white"/>
<path d="M7.60078 29.2059H9.32578L10.8419 33.4411C11.071 34.0445 11.2237 34.6119 11.3001 35.1433H11.354C11.3944 34.8956 11.4686 34.5962 11.5764 34.2449C11.6842 33.8892 12.2547 32.2095 13.2879 29.2059H14.9994L11.8122 37.6696C11.2327 39.2232 10.2669 40 8.91475 40C8.56436 40 8.22295 39.9617 7.89053 39.8851V38.6288C8.12861 38.6828 8.40039 38.7098 8.70586 38.7098C9.46953 38.7098 10.0063 38.2663 10.3163 37.3791L10.5926 36.6766L7.60078 29.2059Z" fill="white"/>
<path d="M23.2808 39.3177H21.8051V36.6766H16.6975V39.3177H15.2353V35.4473H15.8417C16.3718 34.6862 16.7918 33.7676 17.1018 32.6913C17.4162 31.6106 17.6026 30.4488 17.661 29.2059H22.1892V35.4473H23.2808V39.3177ZM20.6326 35.4473V30.4217H19.0289C18.9436 31.3494 18.7639 32.2635 18.4898 33.1642C18.2203 34.0648 17.8901 34.8258 17.4993 35.4473H20.6326Z" fill="white"/>
<path d="M31.2724 32.9278C31.2724 34.1481 30.9602 35.1005 30.3357 35.785C29.7113 36.4695 28.8421 36.8117 27.728 36.8117C27.0317 36.8117 26.4163 36.6541 25.8817 36.3389C25.3472 36.0237 24.9361 35.5711 24.6486 34.9812C24.3611 34.3913 24.2174 33.7068 24.2174 32.9278C24.2174 31.7164 24.5273 30.7707 25.1473 30.0908C25.7672 29.4108 26.6409 29.0708 27.7685 29.0708C28.8466 29.0708 29.7001 29.4198 30.329 30.1178C30.9579 30.8113 31.2724 31.7479 31.2724 32.9278ZM25.848 32.9278C25.848 34.6525 26.4837 35.5148 27.755 35.5148C29.0128 35.5148 29.6417 34.6525 29.6417 32.9278C29.6417 31.2211 29.0083 30.3677 27.7415 30.3677C27.0767 30.3677 26.5938 30.5884 26.2928 31.0297C25.9963 31.471 25.848 32.1037 25.848 32.9278Z" fill="white"/>
<path d="M36.7708 32.8332V29.2059H38.2465V32.8332L41.117 29.2059H42.7881L39.8569 32.8197L43.0509 36.6766H41.3057L38.2465 32.8872V36.6766H36.7708V32.8872L33.7184 36.6766H31.9799L35.1671 32.8197L32.2427 29.2059H33.9138L36.7708 32.8332Z" fill="white"/>
<path d="M47.4577 36.8117C46.2987 36.8117 45.3913 36.474 44.7355 35.7985C44.0841 35.1185 43.7584 34.1841 43.7584 32.9953C43.7584 31.7749 44.0616 30.8158 44.6681 30.1178C45.2745 29.4198 46.1078 29.0708 47.168 29.0708C48.1518 29.0708 48.9289 29.3703 49.4994 29.9692C50.0699 30.5681 50.3552 31.3922 50.3552 32.4414V33.2993H45.3891C45.4115 34.0243 45.6069 34.5827 45.9753 34.9744C46.3437 35.3617 46.8625 35.5553 47.5318 35.5553C47.9721 35.5553 48.3809 35.5148 48.7582 35.4338C49.14 35.3482 49.5488 35.2086 49.9846 35.015V36.3051C49.5982 36.4898 49.2074 36.6203 48.8121 36.6969C48.4168 36.7735 47.9653 36.8117 47.4577 36.8117ZM47.168 30.2731C46.6648 30.2731 46.2605 30.433 45.9551 30.7527C45.6541 31.0725 45.4744 31.5385 45.416 32.151H48.7986C48.7896 31.534 48.6414 31.068 48.3539 30.7527C48.0664 30.433 47.6711 30.2731 47.168 30.2731Z" fill="white"/>
<path d="M55.1596 36.8117C54.032 36.8117 53.174 36.483 52.5855 35.8255C52.0016 35.1636 51.7096 34.2157 51.7096 32.9818C51.7096 31.7254 52.015 30.7595 52.626 30.084C53.2414 29.4085 54.1286 29.0708 55.2876 29.0708C56.0737 29.0708 56.7812 29.2172 57.4102 29.5099L56.9317 30.7865C56.2624 30.5253 55.7099 30.3947 55.2741 30.3947C53.9849 30.3947 53.3402 31.2526 53.3402 32.9683C53.3402 33.8059 53.4997 34.4363 53.8187 34.8596C54.1421 35.2784 54.6138 35.4878 55.2337 35.4878C55.939 35.4878 56.6061 35.3122 57.235 34.9609V36.3457C56.952 36.5123 56.6487 36.6316 56.3253 36.7037C56.0063 36.7757 55.6178 36.8117 55.1596 36.8117Z" fill="white"/>
<path d="M64.5864 29.2059V30.4488H62.1606V36.6766H60.5704V30.4488H58.1446V29.2059H64.5864Z" fill="white"/>
<path d="M72.4904 31.1175C72.4904 32.0001 71.9761 32.5337 70.9474 32.7184V32.7724C71.5224 32.8399 71.9626 33.0223 72.2681 33.3195C72.5735 33.6167 72.7263 34.0018 72.7263 34.4746C72.7263 35.1816 72.4567 35.7265 71.9177 36.1092C71.3831 36.4875 70.6037 36.6766 69.5795 36.6766H66.0217V29.2059H69.566C71.5156 29.2059 72.4904 29.8431 72.4904 31.1175ZM71.1023 34.38C71.1023 34.0198 70.9631 33.7653 70.6846 33.6167C70.4061 33.4636 69.9883 33.3871 69.4313 33.3871H67.6052V35.5013H69.4717C70.5588 35.5013 71.1023 35.1275 71.1023 34.38ZM70.9069 31.2526C70.9069 30.9554 70.7901 30.7415 70.5565 30.6109C70.3274 30.4758 69.9838 30.4082 69.5256 30.4082H67.6052V32.205H69.2897C69.8198 32.205 70.2219 32.1375 70.4959 32.0024C70.7699 31.8628 70.9069 31.6128 70.9069 31.2526Z" fill="white"/>
<path d="M77.6183 36.8117C76.4593 36.8117 75.5519 36.474 74.896 35.7985C74.2446 35.1185 73.9189 34.1841 73.9189 32.9953C73.9189 31.7749 74.2222 30.8158 74.8286 30.1178C75.4351 29.4198 76.2684 29.0708 77.3285 29.0708C78.3123 29.0708 79.0895 29.3703 79.66 29.9692C80.2305 30.5681 80.5157 31.3922 80.5157 32.4414V33.2993H75.5496C75.5721 34.0243 75.7675 34.5827 76.1358 34.9744C76.5042 35.3617 77.023 35.5553 77.6924 35.5553C78.1326 35.5553 78.5414 35.5148 78.9188 35.4338C79.3006 35.3482 79.7094 35.2086 80.1451 35.015V36.3051C79.7588 36.4898 79.368 36.6203 78.9727 36.6969C78.5773 36.7735 78.1259 36.8117 77.6183 36.8117ZM77.3285 30.2731C76.8254 30.2731 76.4211 30.433 76.1156 30.7527C75.8147 31.0725 75.635 31.5385 75.5766 32.151H78.9592C78.9502 31.534 78.802 31.068 78.5145 30.7527C78.227 30.433 77.8316 30.2731 77.3285 30.2731Z" fill="white"/>
<path d="M83.8983 29.2059V32.205H87.409V29.2059H88.9925V36.6766H87.409V33.4546H83.8983V36.6766H82.3148V29.2059H83.8983Z" fill="white"/>
<path d="M92.8468 29.2059V32.205H96.3574V29.2059H97.9409V36.6766H96.3574V33.4546H92.8468V36.6766H91.2633V29.2059H92.8468Z" fill="white"/>
<path d="M104.875 36.6766L104.558 35.6364H104.504C104.145 36.0912 103.783 36.4019 103.419 36.5686C103.055 36.7307 102.588 36.8117 102.018 36.8117C101.285 36.8117 100.713 36.6136 100.299 36.2173C99.8905 35.821 99.6861 35.2604 99.6861 34.5354C99.6861 33.7653 99.9714 33.1844 100.542 32.7927C101.112 32.4009 101.982 32.187 103.15 32.151L104.437 32.1104V31.7119C104.437 31.2346 104.324 30.8788 104.1 30.6447C103.88 30.406 103.536 30.2867 103.069 30.2867C102.687 30.2867 102.321 30.3429 101.97 30.4555C101.62 30.5681 101.283 30.7009 100.96 30.8541L100.448 29.7193C100.852 29.5076 101.294 29.3477 101.775 29.2397C102.256 29.1271 102.709 29.0708 103.136 29.0708C104.084 29.0708 104.798 29.2779 105.279 29.6922C105.764 30.1065 106.007 30.7572 106.007 31.6444V36.6766H104.875ZM102.516 35.5959C103.091 35.5959 103.552 35.436 103.898 35.1163C104.248 34.7921 104.423 34.3395 104.423 33.7586V33.1101L103.466 33.1507C102.721 33.1777 102.177 33.3038 101.836 33.5289C101.499 33.7496 101.33 34.0896 101.33 34.5489C101.33 34.8821 101.429 35.1411 101.627 35.3257C101.824 35.5058 102.121 35.5959 102.516 35.5959Z" fill="white"/>
<path d="M108.978 36.6766H107.206L109.281 33.6167C108.778 33.4726 108.383 33.216 108.096 32.8467C107.808 32.4729 107.664 32.0114 107.664 31.462C107.664 30.755 107.916 30.2033 108.419 29.8071C108.922 29.4063 109.609 29.2059 110.481 29.2059H113.877V36.6766H112.287V33.7991H110.784L108.978 36.6766ZM109.207 31.4755C109.207 31.8583 109.351 32.1465 109.639 32.3401C109.931 32.5292 110.321 32.6238 110.811 32.6238H112.287V30.4082H110.562C110.13 30.4082 109.796 30.5006 109.558 30.6852C109.324 30.8698 109.207 31.1332 109.207 31.4755Z" fill="white"/>
<path d="M124.544 29.2059V30.4488H121.309V36.6766H119.726V29.2059H124.544Z" fill="white"/>
<path d="M130.642 36.6766L130.325 35.6364H130.271C129.912 36.0912 129.55 36.4019 129.186 36.5686C128.822 36.7307 128.355 36.8117 127.785 36.8117C127.053 36.8117 126.48 36.6136 126.067 36.2173C125.658 35.821 125.453 35.2604 125.453 34.5354C125.453 33.7653 125.739 33.1844 126.309 32.7927C126.88 32.4009 127.749 32.187 128.917 32.151L130.204 32.1104V31.7119C130.204 31.2346 130.092 30.8788 129.867 30.6447C129.647 30.406 129.303 30.2867 128.836 30.2867C128.454 30.2867 128.088 30.3429 127.738 30.4555C127.387 30.5681 127.05 30.7009 126.727 30.8541L126.215 29.7193C126.619 29.5076 127.062 29.3477 127.542 29.2397C128.023 29.1271 128.477 29.0708 128.903 29.0708C129.851 29.0708 130.565 29.2779 131.046 29.6922C131.531 30.1065 131.774 30.7572 131.774 31.6444V36.6766H130.642ZM128.283 35.5959C128.858 35.5959 129.319 35.436 129.665 35.1163C130.015 34.7921 130.19 34.3395 130.19 33.7586V33.1101L129.234 33.1507C128.488 33.1777 127.944 33.3038 127.603 33.5289C127.266 33.7496 127.097 34.0896 127.097 34.5489C127.097 34.8821 127.196 35.1411 127.394 35.3257C127.592 35.5058 127.888 35.5959 128.283 35.5959Z" fill="white"/>
<path d="M140.109 36.6766H138.512V30.4488H136.457C136.331 32.0519 136.16 33.3038 135.945 34.2044C135.734 35.105 135.455 35.7625 135.109 36.1768C134.768 36.5911 134.323 36.7982 133.775 36.7982C133.429 36.7982 133.139 36.7487 132.906 36.6496V35.4067C133.072 35.4698 133.238 35.5013 133.404 35.5013C133.863 35.5013 134.222 34.9857 134.483 33.9545C134.748 32.9187 134.954 31.3359 135.103 29.2059H140.109V36.6766Z" fill="white"/>
<path d="M145.634 36.8117C144.475 36.8117 143.568 36.474 142.912 35.7985C142.261 35.1185 141.935 34.1841 141.935 32.9953C141.935 31.7749 142.238 30.8158 142.845 30.1178C143.451 29.4198 144.285 29.0708 145.345 29.0708C146.329 29.0708 147.106 29.3703 147.676 29.9692C148.247 30.5681 148.532 31.3922 148.532 32.4414V33.2993H143.566C143.588 34.0243 143.784 34.5827 144.152 34.9744C144.52 35.3617 145.039 35.5553 145.709 35.5553C146.149 35.5553 146.558 35.5148 146.935 35.4338C147.317 35.3482 147.726 35.2086 148.161 35.015V36.3051C147.775 36.4898 147.384 36.6203 146.989 36.6969C146.594 36.7735 146.142 36.8117 145.634 36.8117ZM145.345 30.2731C144.842 30.2731 144.437 30.433 144.132 30.7527C143.831 31.0725 143.651 31.5385 143.593 32.151H146.975C146.966 31.534 146.818 31.068 146.531 30.7527C146.243 30.433 145.848 30.2731 145.345 30.2731Z" fill="white"/>
<path d="M154.111 36.8117C153.168 36.8117 152.436 36.4717 151.915 35.7918H151.82C151.883 36.4222 151.915 36.805 151.915 36.9401V40H150.331V29.2059H151.611C151.647 29.3455 151.721 29.6787 151.834 30.2056H151.915C152.409 29.4491 153.15 29.0708 154.138 29.0708C155.068 29.0708 155.791 29.4085 156.308 30.084C156.829 30.7595 157.09 31.7074 157.09 32.9278C157.09 34.1481 156.825 35.1005 156.294 35.785C155.769 36.4695 155.041 36.8117 154.111 36.8117ZM153.727 30.3677C153.098 30.3677 152.638 30.5523 152.346 30.9216C152.058 31.2909 151.915 31.8808 151.915 32.6913V32.9278C151.915 33.8374 152.058 34.4971 152.346 34.9069C152.633 35.3122 153.103 35.5148 153.754 35.5148C154.302 35.5148 154.724 35.2897 155.021 34.8393C155.317 34.389 155.466 33.7473 155.466 32.9142C155.466 32.0767 155.317 31.444 155.021 31.0162C154.729 30.5839 154.298 30.3677 153.727 30.3677Z" fill="white"/>
<path d="M162.184 36.8117C161.025 36.8117 160.117 36.474 159.461 35.7985C158.81 35.1185 158.484 34.1841 158.484 32.9953C158.484 31.7749 158.788 30.8158 159.394 30.1178C160 29.4198 160.834 29.0708 161.894 29.0708C162.878 29.0708 163.655 29.3703 164.225 29.9692C164.796 30.5681 165.081 31.3922 165.081 32.4414V33.2993H160.115C160.137 34.0243 160.333 34.5827 160.701 34.9744C161.07 35.3617 161.588 35.5553 162.258 35.5553C162.698 35.5553 163.107 35.5148 163.484 35.4338C163.866 35.3482 164.275 35.2086 164.711 35.015V36.3051C164.324 36.4898 163.933 36.6203 163.538 36.6969C163.143 36.7735 162.691 36.8117 162.184 36.8117ZM161.894 30.2731C161.391 30.2731 160.987 30.433 160.681 30.7527C160.38 31.0725 160.2 31.5385 160.142 32.151H163.525C163.516 31.534 163.367 31.068 163.08 30.7527C162.792 30.433 162.397 30.2731 161.894 30.2731Z" fill="white"/>
<path d="M167.642 36.6766H165.87L167.945 33.6167C167.442 33.4726 167.046 33.216 166.759 32.8467C166.471 32.4729 166.328 32.0114 166.328 31.462C166.328 30.755 166.579 30.2033 167.082 29.8071C167.586 29.4063 168.273 29.2059 169.144 29.2059H172.54V36.6766H170.95V33.7991H169.448L167.642 36.6766ZM167.871 31.4755C167.871 31.8583 168.015 32.1465 168.302 32.3401C168.594 32.5292 168.985 32.6238 169.475 32.6238H170.95V30.4082H169.225C168.794 30.4082 168.459 30.5006 168.221 30.6852C167.988 30.8698 167.871 31.1332 167.871 31.4755Z" fill="white"/>
<path d="M0 21.6516H11.6611C16.2601 21.6516 18.6142 19.5638 18.6142 15.5892V15.5273C18.6142 12.5734 17.1175 10.7794 14.2334 10.2691V9.99068C16.6498 9.52672 17.9126 7.94924 17.9126 5.38198V5.30465C17.9126 1.80946 15.7145 0 11.4117 0H0V21.6516ZM4.59897 8.8617V3.06216H10.0398C12.2379 3.06216 13.3292 4.02102 13.3292 5.9078V5.96966C13.3292 7.88738 12.2379 8.8617 10.0398 8.8617H4.59897ZM4.59897 18.574V11.6764H10.1801C12.5965 11.6764 13.7969 12.8209 13.7969 15.0633V15.1252C13.7969 17.4141 12.5965 18.574 10.1801 18.574H4.59897Z" fill="white"/>
<path d="M22.9462 0V21.6516H27.4828V0H22.9462Z" fill="white"/>
<path d="M36.9751 22.0537C40.6387 22.0537 43.3046 20.4299 44.2867 17.677L44.5985 17.7543C44.0061 20.7546 44.6297 22.0537 48.2153 22.0537C48.6674 22.0537 49.1195 22.0073 49.4937 21.9455L50.0237 19.27L49.2443 19.2545C48.3868 19.239 48.1374 19.038 48.1374 17.9399V10.501C48.1374 6.82026 45.6742 5.0572 40.4205 5.0572C34.8393 5.0572 32.0176 7.23783 32.2514 11.0114L36.7257 11.3826C36.5386 8.89263 37.817 7.76366 40.3269 7.76366C42.5718 7.76366 43.6319 8.58332 43.6319 10.4546V11.3671L39.2045 12.1713C34.777 12.991 31.8461 14.3829 31.8461 17.7853V17.8317C31.8461 20.5227 33.6857 22.0537 36.9751 22.0537ZM38.7835 19.0534C37.2557 19.0534 36.4295 18.5121 36.4295 17.3986V17.3677C36.4295 15.7748 37.8793 15.1252 40.7478 14.5685L43.6319 14.0117V14.7695C43.6319 17.2594 41.3714 19.0534 38.7835 19.0534Z" fill="white"/>
<path d="M53.8414 21.6516H58.378V14.1045C58.378 10.4546 60.1084 8.19669 62.9769 8.19669C65.1127 8.19669 66.1728 9.29474 66.1728 11.398V21.6516H70.7095V10.3155C70.7095 6.91306 68.6984 5.11906 64.9568 5.11906C61.5583 5.11906 59.2354 6.60375 57.8635 9.69684L57.5517 9.55765C58.1753 7.71726 58.3936 6.61921 58.3936 5.41291H53.8414V21.6516Z" fill="white"/>
<path d="M84.2083 22.0383C89.5556 22.0383 92.5488 19.904 93.0009 15.7748L88.4175 15.2644C88.2305 17.8626 86.7962 19.1772 84.2239 19.1772C81.3398 19.1772 79.8432 17.3832 79.8432 13.8416V13.0838C79.8432 9.61951 81.3554 7.87191 84.1771 7.87191C86.7806 7.87191 88.1369 9.3102 88.3396 12.1868L92.8606 11.6764C92.502 7.29969 89.6179 5.02627 84.1927 5.02627C78.2998 5.02627 75.1974 7.88738 75.1974 13.3621V13.5632C75.1974 19.1308 78.2686 22.0383 84.2083 22.0383Z" fill="white"/>
<path d="M97.5201 21.6516H102.057V14.1045C102.057 10.4546 103.772 8.21215 106.656 8.21215C108.791 8.21215 109.852 9.29474 109.852 11.398V21.6516H114.388V10.3155C114.388 6.91306 112.362 5.11906 108.636 5.11906C105.206 5.11906 102.899 6.60375 101.542 9.68137L101.215 9.55765C101.823 7.82552 102.041 6.54189 102.057 5.01081V0H97.5201V21.6516Z" fill="white"/>
<path d="M123.803 22.0537C127.466 22.0537 130.132 20.4299 131.114 17.677L131.426 17.7543C130.833 20.7546 131.457 22.0537 135.043 22.0537C135.495 22.0537 135.947 22.0073 136.321 21.9455L136.851 19.27L136.072 19.2545C135.214 19.239 134.965 19.038 134.965 17.9399V10.501C134.965 6.82026 132.502 5.0572 127.248 5.0572C121.667 5.0572 118.845 7.23783 119.079 11.0114L123.553 11.3826C123.366 8.89263 124.644 7.76366 127.154 7.76366C129.399 7.76366 130.459 8.58332 130.459 10.4546V11.3671L126.032 12.1713C121.604 12.991 118.673 14.3829 118.673 17.7853V17.8317C118.673 20.5227 120.513 22.0537 123.803 22.0537ZM125.611 19.0534C124.083 19.0534 123.257 18.5121 123.257 17.3986V17.3677C123.257 15.7748 124.707 15.1252 127.575 14.5685L130.459 14.0117V14.7695C130.459 17.2594 128.199 19.0534 125.611 19.0534Z" fill="white"/>
<path d="M140.669 21.6516H145.205V14.8623C145.205 10.6248 146.53 9.06275 149.991 8.81531L152.221 8.64519L151.691 4.90255C148.027 5.18093 146.328 6.32537 144.644 9.69684L144.348 9.55765C145.081 7.39249 145.252 6.52642 145.221 5.41291H140.669V21.6516Z" fill="white"/>
<path d="M162.243 21.9455C165.61 21.9455 167.809 20.3989 168.915 17.5997L169.243 17.7079C168.713 19.4091 168.432 20.7546 168.417 21.6516H173V0H168.463V4.40765C168.463 6.10885 168.697 7.48528 169.258 9.3566L168.947 9.48032C167.84 6.69654 165.626 5.08813 162.243 5.08813C157.566 5.08813 155.103 7.91831 155.103 13.3312V13.7179C155.103 19.1153 157.566 21.9455 162.243 21.9455ZM163.958 19.1617C161.152 19.1617 159.686 17.3832 159.686 13.8725V13.1611C159.686 9.63498 161.152 7.84098 163.958 7.84098C166.889 7.84098 168.463 9.72777 168.463 13.2384V13.7952C168.463 17.2904 166.889 19.1617 163.958 19.1617Z" fill="white"/>
</svg>
